<svg xmlns="http://www.w3.org/2000/svg" viewBox="0 0 3200 1140" width="3200" height="1140" style="background:#0f1117;font-family:'Segoe UI',Arial,sans-serif;">
<defs>
  <marker id="arr" viewBox="0 0 10 10" refX="9" refY="5" markerWidth="7" markerHeight="7" orient="auto-start-reverse">
    <path d="M1 1L9 5L1 9" fill="none" stroke="#8b9ab0" stroke-width="1.5" stroke-linecap="round" stroke-linejoin="round"/>
  </marker>
  <marker id="arr-green" viewBox="0 0 10 10" refX="9" refY="5" markerWidth="7" markerHeight="7" orient="auto-start-reverse">
    <path d="M1 1L9 5L1 9" fill="none" stroke="#2dd4a0" stroke-width="1.5" stroke-linecap="round" stroke-linejoin="round"/>
  </marker>
  <marker id="arr-purple" viewBox="0 0 10 10" refX="9" refY="5" markerWidth="7" markerHeight="7" orient="auto-start-reverse">
    <path d="M1 1L9 5L1 9" fill="none" stroke="#a78bfa" stroke-width="1.5" stroke-linecap="round" stroke-linejoin="round"/>
  </marker>
  <marker id="arr-coral" viewBox="0 0 10 10" refX="9" refY="5" markerWidth="7" markerHeight="7" orient="auto-start-reverse">
    <path d="M1 1L9 5L1 9" fill="none" stroke="#fb7185" stroke-width="1.5" stroke-linecap="round" stroke-linejoin="round"/>
  </marker>
  <marker id="arr-amber" viewBox="0 0 10 10" refX="9" refY="5" markerWidth="7" markerHeight="7" orient="auto-start-reverse">
    <path d="M1 1L9 5L1 9" fill="none" stroke="#fbbf24" stroke-width="1.5" stroke-linecap="round" stroke-linejoin="round"/>
  </marker>
  <marker id="arr-blue" viewBox="0 0 10 10" refX="9" refY="5" markerWidth="7" markerHeight="7" orient="auto-start-reverse">
    <path d="M1 1L9 5L1 9" fill="none" stroke="#60a5fa" stroke-width="1.5" stroke-linecap="round" stroke-linejoin="round"/>
  </marker>
  <marker id="arr-pink" viewBox="0 0 10 10" refX="9" refY="5" markerWidth="7" markerHeight="7" orient="auto-start-reverse">
    <path d="M1 1L9 5L1 9" fill="none" stroke="#f472b6" stroke-width="1.5" stroke-linecap="round" stroke-linejoin="round"/>
  </marker>
  <filter id="glow-teal">
    <feGaussianBlur stdDeviation="3" result="blur"/>
    <feComposite in="SourceGraphic" in2="blur" operator="over"/>
  </filter>
</defs>

<!-- ═══════════════════════════════════════════════════════
     BACKGROUND SWIM LANES
═══════════════════════════════════════════════════════ -->

<!-- Lane 1: Core Flow -->
<rect x="0" y="80" width="3200" height="64" fill="#1a1f2e" opacity="0.6"/>
<text x="20" y="118" fill="#8b9ab0" font-size="11" font-weight="600" letter-spacing="2" text-anchor="start">CORE INTERACTION FLOW</text>

<!-- Lane 2: Move sub-flow -->
<rect x="0" y="350" width="3200" height="64" fill="#1a2a1f" opacity="0.5"/>
<text x="20" y="388" fill="#2dd4a0" font-size="11" font-weight="600" letter-spacing="2" text-anchor="start">MOVE VERTEX SUB-FLOW</text>

<!-- Lane 3: Delete sub-flow -->
<rect x="0" y="530" width="3200" height="64" fill="#2a1a1f" opacity="0.5"/>
<text x="20" y="568" fill="#fb7185" font-size="11" font-weight="600" letter-spacing="2" text-anchor="start">DELETE VERTEX SUB-FLOW</text>

<!-- Lane 4: Refresh / Theme / Colour -->
<rect x="0" y="720" width="3200" height="64" fill="#1a1a2a" opacity="0.5"/>
<text x="20" y="758" fill="#60a5fa" font-size="11" font-weight="600" letter-spacing="2" text-anchor="start">CANVAS REFRESH · THEME · COLOUR PALETTE</text>

<!-- Lane 5: Undo/Redo -->
<rect x="0" y="910" width="3200" height="64" fill="#231a2a" opacity="0.5"/>
<text x="20" y="948" fill="#a78bfa" font-size="11" font-weight="600" letter-spacing="2" text-anchor="start">UNDO / REDO SUB-FLOW</text>

<!-- ═══════════════════════════════════════════════════════
     TITLE + SUBTITLE
═══════════════════════════════════════════════════════ -->
<text x="1600" y="34" fill="#e2e8f0" font-size="20" font-weight="700" text-anchor="middle" letter-spacing="3">STATE TRANSITION NETWORK — POLYLINE EDITOR</text>
<text x="1600" y="56" fill="#64748b" font-size="12" text-anchor="middle">HCI Mid-Lab 2026 · Phase B Analysis · Aaisha Iqbal B23110006001</text>

<!-- ═══════════════════════════════════════════════════════
     HELPER MACROS (drawn manually)
     State oval: fill, stroke, title, subtitle
═══════════════════════════════════════════════════════ -->

<!-- ──────────────────────────────────────────
  COLUMN 1 — START + IDLE  x=120
────────────────────────────────────────── -->

<!-- START dot -->
<circle cx="120" cy="112" r="10" fill="#e2e8f0"/>
<line x1="120" y1="122" x2="120" y2="148" stroke="#8b9ab0" stroke-width="2" marker-end="url(#arr)"/>

<!-- STATE: IDLE -->
<ellipse cx="120" cy="190" rx="92" ry="36" fill="#1e2a3a" stroke="#38bdf8" stroke-width="1.5"/>
<text x="120" y="185" fill="#7dd3fc" font-size="14" font-weight="700" text-anchor="middle">IDLE</text>
<text x="120" y="202" fill="#7dd3fc" font-size="10" text-anchor="middle">No active polyline</text>

<!-- ──────────────────────────────────────────
  IDLE → DRAWING  (b key)
────────────────────────────────────────── -->
<line x1="212" y1="190" x2="318" y2="190" stroke="#2dd4a0" stroke-width="2" marker-end="url(#arr-green)"/>
<rect x="215" y="174" width="100" height="28" rx="4" fill="#0f2a1f"/>
<text x="265" y="185" fill="#2dd4a0" font-size="11" font-weight="600" text-anchor="middle">b pressed</text>
<text x="265" y="197" fill="#2dd4a0" font-size="9" text-anchor="middle">/ alloc new slot</text>

<!-- ──────────────────────────────────────────
  COLUMN 2 — DRAWING  x=420
────────────────────────────────────────── -->

<!-- STATE: DRAWING -->
<ellipse cx="420" cy="190" rx="92" ry="36" fill="#1a2e1a" stroke="#2dd4a0" stroke-width="2"/>
<text x="420" y="185" fill="#6ee7b7" font-size="14" font-weight="700" text-anchor="middle">DRAWING</text>
<text x="420" y="202" fill="#6ee7b7" font-size="10" text-anchor="middle">Active polyline set</text>

<!-- DRAWING self-loop top: click canvas → append vertex -->
<path d="M370 156 Q420 110 470 156" fill="none" stroke="#2dd4a0" stroke-width="1.5" stroke-dasharray="5 3" marker-end="url(#arr-green)"/>
<text x="420" y="115" fill="#2dd4a0" font-size="10" text-anchor="middle" font-weight="600">click(x,y)</text>
<text x="420" y="127" fill="#64748b" font-size="9" text-anchor="middle">/ append vertex · draw segment</text>

<!-- DRAWING self-loop: b again → new polyline -->
<path d="M375 158 Q420 102 465 158" fill="none" stroke="#2dd4a0" stroke-width="1" stroke-dasharray="3 3"/>
<text x="420" y="99" fill="#64748b" font-size="9" text-anchor="middle">b / finalise current · alloc new</text>

<!-- ──────────────────────────────────────────
  DRAWING → MOVE MODE  (m key, down-left)
────────────────────────────────────────── -->
<path d="M420 226 L420 340 L640 388" fill="none" stroke="#a78bfa" stroke-width="1.8" marker-end="url(#arr-purple)"/>
<rect x="350" y="264" width="66" height="26" rx="4" fill="#1a1022"/>
<text x="383" y="275" fill="#a78bfa" font-size="11" font-weight="600" text-anchor="middle">m pressed</text>
<text x="383" y="286" fill="#a78bfa" font-size="9" text-anchor="middle">/ enter move mode</text>

<!-- ──────────────────────────────────────────
  DRAWING → DELETE MODE  (d key, down-right)
────────────────────────────────────────── -->
<path d="M420 226 L420 510 L640 558" fill="none" stroke="#fb7185" stroke-width="1.8" marker-end="url(#arr-coral)"/>
<rect x="428" y="360" width="66" height="26" rx="4" fill="#22101a"/>
<text x="461" y="371" fill="#fb7185" font-size="11" font-weight="600" text-anchor="middle">d pressed</text>
<text x="461" y="382" fill="#fb7185" font-size="9" text-anchor="middle">/ enter delete mode</text>

<!-- ──────────────────────────────────────────
  DRAWING → REFRESHING  (r key)
────────────────────────────────────────── -->
<path d="M420 226 L420 710 L640 752" fill="none" stroke="#60a5fa" stroke-width="1.5" stroke-dasharray="6 3" marker-end="url(#arr-blue)"/>
<text x="430" y="500" fill="#60a5fa" font-size="9" text-anchor="start">r / trigger refresh</text>

<!-- ──────────────────────────────────────────
  DRAWING → UNDO/REDO  (Ctrl+Z / Y)
────────────────────────────────────────── -->
<path d="M420 226 L420 900 L640 942" fill="none" stroke="#a78bfa" stroke-width="1.5" stroke-dasharray="6 3" marker-end="url(#arr-purple)"/>
<text x="430" y="680" fill="#a78bfa" font-size="9" text-anchor="start">Ctrl+Z / Ctrl+Y</text>

<!-- ──────────────────────────────────────────
  DRAWING → QUIT CONFIRM  (q key, far right)
────────────────────────────────────────── -->
<line x1="512" y1="190" x2="2980" y2="190" stroke="#f87171" stroke-width="1.5" marker-end="url(#arr-coral)"/>
<rect x="540" y="174" width="90" height="28" rx="4" fill="#22101a"/>
<text x="585" y="185" fill="#fb7185" font-size="11" font-weight="600" text-anchor="middle">q pressed</text>
<text x="585" y="197" fill="#fb7185" font-size="9" text-anchor="middle">/ show quit dialog</text>

<!-- ══════════════════════════════════════════════════════════════════
     MOVE VERTEX SUB-FLOW  (y ~ 388 lane centre)
════════════════════════════════════════════════════════════════════ -->

<!-- STATE: MOVE MODE  x=740 -->
<ellipse cx="740" cy="388" rx="96" ry="36" fill="#1e1a30" stroke="#a78bfa" stroke-width="2"/>
<text x="740" y="383" fill="#c4b5fd" font-size="14" font-weight="700" text-anchor="middle">MOVE MODE</text>
<text x="740" y="400" fill="#c4b5fd" font-size="10" text-anchor="middle">Awaiting vertex selection</text>

<!-- MOVE MODE self-loop: no vertex near → error msg -->
<path d="M700 354 Q740 302 780 354" fill="none" stroke="#a78bfa" stroke-width="1.2" stroke-dasharray="4 3" marker-end="url(#arr-purple)"/>
<text x="740" y="305" fill="#a78bfa" font-size="10" text-anchor="middle" font-weight="600">[no vertex near cursor]</text>
<text x="740" y="317" fill="#64748b" font-size="9" text-anchor="middle">click / show status error</text>

<!-- MOVE MODE → VERTEX SELECTED  (mousedown near vertex) -->
<line x1="836" y1="388" x2="966" y2="388" stroke="#a78bfa" stroke-width="2" marker-end="url(#arr-purple)"/>
<rect x="840" y="372" width="122" height="28" rx="4" fill="#1a1022"/>
<text x="901" y="383" fill="#a78bfa" font-size="11" font-weight="600" text-anchor="middle">[vertex found] mousedown</text>
<text x="901" y="395" fill="#a78bfa" font-size="9" text-anchor="middle">/ select · erase adj. segs</text>

<!-- STATE: VERTEX SELECTED  x=1070 -->
<ellipse cx="1070" cy="388" rx="96" ry="36" fill="#221a30" stroke="#a78bfa" stroke-width="2"/>
<text x="1070" y="383" fill="#c4b5fd" font-size="14" font-weight="700" text-anchor="middle">VERTEX SELECTED</text>
<text x="1070" y="400" fill="#c4b5fd" font-size="10" text-anchor="middle">Vertex highlighted, segs erased</text>

<!-- VERTEX SELECTED → DRAGGING -->
<line x1="1166" y1="388" x2="1296" y2="388" stroke="#fbbf24" stroke-width="2" marker-end="url(#arr-amber)"/>
<rect x="1170" y="372" width="122" height="28" rx="4" fill="#221500"/>
<text x="1231" y="383" fill="#fbbf24" font-size="11" font-weight="600" text-anchor="middle">drag begins</text>
<text x="1231" y="395" fill="#fbbf24" font-size="9" text-anchor="middle">/ start drag tracking</text>

<!-- STATE: DRAGGING VERTEX  x=1400 -->
<ellipse cx="1400" cy="388" rx="96" ry="36" fill="#2a1e0a" stroke="#fbbf24" stroke-width="2"/>
<text x="1400" y="383" fill="#fde68a" font-size="14" font-weight="700" text-anchor="middle">DRAGGING VERTEX</text>
<text x="1400" y="400" fill="#fde68a" font-size="10" text-anchor="middle">Vertex follows cursor live</text>

<!-- DRAGGING self-loop: mousemove → redraw segs -->
<path d="M1352 354 Q1400 306 1448 354" fill="none" stroke="#fbbf24" stroke-width="1.2" stroke-dasharray="4 3" marker-end="url(#arr-amber)"/>
<text x="1400" y="307" fill="#fbbf24" font-size="10" text-anchor="middle" font-weight="600">mousemove</text>
<text x="1400" y="319" fill="#64748b" font-size="9" text-anchor="middle">/ redraw adjacent segments live</text>

<!-- DRAGGING → MOVE COMPLETE (mouseup) -->
<line x1="1496" y1="388" x2="1626" y2="388" stroke="#a78bfa" stroke-width="2" marker-end="url(#arr-purple)"/>
<rect x="1500" y="372" width="122" height="28" rx="4" fill="#1a1022"/>
<text x="1561" y="383" fill="#a78bfa" font-size="11" font-weight="600" text-anchor="middle">mouseup</text>
<text x="1561" y="395" fill="#a78bfa" font-size="9" text-anchor="middle">/ update vertex coords</text>

<!-- STATE: MOVE COMPLETE  x=1730 -->
<ellipse cx="1730" cy="388" rx="96" ry="36" fill="#1e1a30" stroke="#a78bfa" stroke-width="2"/>
<text x="1730" y="383" fill="#c4b5fd" font-size="14" font-weight="700" text-anchor="middle">MOVE COMPLETE</text>
<text x="1730" y="400" fill="#c4b5fd" font-size="10" text-anchor="middle">Polyline redrawn at new pos</text>

<!-- MOVE COMPLETE → MOVE MODE (stay, await next) -->
<path d="M1730 424 Q1730 470 1230 470 Q740 470 740 424" fill="none" stroke="#a78bfa" stroke-width="1.5" stroke-dasharray="5 3" marker-end="url(#arr-purple)"/>
<text x="1235" y="486" fill="#a78bfa" font-size="10" text-anchor="middle">/ remain in MOVE MODE — await next action</text>

<!-- MOVE COMPLETE → DRAWING (b key) -->
<path d="M1730 352 L1730 240 Q1730 190 420 190" fill="none" stroke="#2dd4a0" stroke-width="1.2" stroke-dasharray="5 3" marker-end="url(#arr-green)"/>
<text x="1250" y="238" fill="#2dd4a0" font-size="9" text-anchor="middle">b / new polyline → return to DRAWING</text>

<!-- ══════════════════════════════════════════════════════════════════
     DELETE VERTEX SUB-FLOW  (y ~ 558 lane centre)
════════════════════════════════════════════════════════════════════ -->

<!-- STATE: DELETE MODE  x=740 -->
<ellipse cx="740" cy="558" rx="96" ry="36" fill="#2a1018" stroke="#fb7185" stroke-width="2"/>
<text x="740" y="553" fill="#fca5a5" font-size="14" font-weight="700" text-anchor="middle">DELETE MODE</text>
<text x="740" y="570" fill="#fca5a5" font-size="10" text-anchor="middle">Awaiting vertex click</text>

<!-- DELETE MODE self-loop: no vertex near → error msg -->
<path d="M700 524 Q740 472 780 524" fill="none" stroke="#fb7185" stroke-width="1.2" stroke-dasharray="4 3" marker-end="url(#arr-coral)"/>
<text x="740" y="475" fill="#fb7185" font-size="10" text-anchor="middle" font-weight="600">[no vertex near cursor]</text>
<text x="740" y="487" fill="#64748b" font-size="9" text-anchor="middle">click / show status error, stay</text>

<!-- DELETE MODE → VERTEX TARGETED  (click near vertex) -->
<line x1="836" y1="558" x2="966" y2="558" stroke="#fb7185" stroke-width="2" marker-end="url(#arr-coral)"/>
<rect x="840" y="542" width="122" height="28" rx="4" fill="#22101a"/>
<text x="901" y="553" fill="#fb7185" font-size="11" font-weight="600" text-anchor="middle">[vertex found] click</text>
<text x="901" y="565" fill="#fb7185" font-size="9" text-anchor="middle">/ identify nearest vertex</text>

<!-- STATE: VERTEX TARGETED  x=1070 -->
<ellipse cx="1070" cy="558" rx="96" ry="36" fill="#2a1018" stroke="#fb7185" stroke-width="2"/>
<text x="1070" y="553" fill="#fca5a5" font-size="14" font-weight="700" text-anchor="middle">VERTEX TARGETED</text>
<text x="1070" y="570" fill="#fca5a5" font-size="10" text-anchor="middle">Nearest vertex identified</text>

<!-- VERTEX TARGETED → SEGMENTS ERASED -->
<line x1="1166" y1="558" x2="1296" y2="558" stroke="#fb7185" stroke-width="2" marker-end="url(#arr-coral)"/>
<rect x="1170" y="542" width="122" height="28" rx="4" fill="#22101a"/>
<text x="1231" y="553" fill="#fb7185" font-size="11" font-weight="600" text-anchor="middle">/ erase adj. segments</text>
<text x="1231" y="565" fill="#fb7185" font-size="9" text-anchor="middle">remove vertex from array</text>

<!-- STATE: SEGMENTS ERASED  x=1400 -->
<ellipse cx="1400" cy="558" rx="96" ry="36" fill="#2a1018" stroke="#fb7185" stroke-width="1.5"/>
<text x="1400" y="553" fill="#fca5a5" font-size="14" font-weight="700" text-anchor="middle">SEGMENTS ERASED</text>
<text x="1400" y="570" fill="#fca5a5" font-size="10" text-anchor="middle">Vertex removed from array</text>

<!-- Branch: ≥ 2 vertices remain → RECONNECTED -->
<line x1="1496" y1="550" x2="1626" y2="530" stroke="#fb7185" stroke-width="1.8" marker-end="url(#arr-coral)"/>
<text x="1560" y="535" fill="#fb7185" font-size="10" text-anchor="middle" font-weight="600">[≥ 2 remain]</text>
<text x="1560" y="546" fill="#64748b" font-size="9" text-anchor="middle">/ reconnect prev ↔ next</text>

<!-- Branch: 1 vertex left → POLYLINE STUB -->
<line x1="1496" y1="558" x2="1626" y2="558" stroke="#fb7185" stroke-width="1.8" stroke-dasharray="5 3" marker-end="url(#arr-coral)"/>
<text x="1560" y="552" fill="#fb7185" font-size="10" text-anchor="middle" font-weight="600">[1 vertex left]</text>
<text x="1560" y="563" fill="#64748b" font-size="9" text-anchor="middle">/ no reconnect needed</text>

<!-- Branch: 0 vertices → SLOT FREED -->
<line x1="1496" y1="566" x2="1626" y2="586" stroke="#fb7185" stroke-width="1.8" stroke-dasharray="5 3" marker-end="url(#arr-coral)"/>
<text x="1560" y="585" fill="#fb7185" font-size="10" text-anchor="middle" font-weight="600">[0 vertices]</text>
<text x="1560" y="596" fill="#64748b" font-size="9" text-anchor="middle">/ free slot</text>

<!-- STATE: RECONNECTED  x=1730, y=518 -->
<ellipse cx="1730" cy="518" rx="106" ry="34" fill="#2a1018" stroke="#fb7185" stroke-width="2"/>
<text x="1730" y="513" fill="#fca5a5" font-size="13" font-weight="700" text-anchor="middle">RECONNECTED</text>
<text x="1730" y="528" fill="#fca5a5" font-size="10" text-anchor="middle">Prev + next vertices joined</text>

<!-- STATE: POLYLINE STUB  x=1730, y=568 -->
<ellipse cx="1730" cy="568" rx="106" ry="30" fill="#2a1018" stroke="#fb7185" stroke-width="1.5" stroke-dasharray="5 3"/>
<text x="1730" y="563" fill="#fca5a5" font-size="13" font-weight="700" text-anchor="middle">POLYLINE STUB</text>
<text x="1730" y="578" fill="#fca5a5" font-size="10" text-anchor="middle">Single isolated vertex remains</text>

<!-- STATE: SLOT FREED  x=1730, y=618 -->
<ellipse cx="1730" cy="620" rx="106" ry="34" fill="#1a1010" stroke="#64748b" stroke-width="1.5"/>
<text x="1730" y="615" fill="#94a3b8" font-size="13" font-weight="700" text-anchor="middle">SLOT FREED</text>
<text x="1730" y="630" fill="#94a3b8" font-size="10" text-anchor="middle">Polyline removed from array</text>

<!-- RECONNECTED → DELETE MODE (stay) -->
<path d="M1730 484 Q1730 440 1235 440 Q740 440 740 522" fill="none" stroke="#fb7185" stroke-width="1.2" stroke-dasharray="5 3" marker-end="url(#arr-coral)"/>
<text x="1235" y="432" fill="#fb7185" font-size="10" text-anchor="middle">/ remain in DELETE MODE</text>

<!-- SLOT FREED → IDLE [no other polylines] -->
<path d="M1624 620 Q1540 620 1540 680 Q1540 800 90 800 Q90 300 120 226" fill="none" stroke="#8b9ab0" stroke-width="1.2" stroke-dasharray="5 3" marker-end="url(#arr)"/>
<text x="850" y="796" fill="#64748b" font-size="9" text-anchor="middle">[no other polylines] → IDLE</text>

<!-- SLOT FREED → DELETE MODE [others exist] -->
<path d="M1624 614 Q1580 614 1580 560 Q1580 520 1836 520 Q1940 520 1940 560 Q1940 580 836 558" fill="none" stroke="#fb7185" stroke-width="1.2" stroke-dasharray="5 3" marker-end="url(#arr-coral)"/>
<text x="1960" y="555" fill="#fb7185" font-size="9" text-anchor="start">[other polylines exist]</text>

<!-- cross-mode: MOVE MODE ↔ DELETE MODE -->
<path d="M740 522 Q740 540 740 524" fill="none"/>
<line x1="740" y1="424" x2="740" y2="522" stroke="#8b9ab0" stroke-width="1.2" stroke-dasharray="4 3" marker-end="url(#arr)"/>
<text x="700" y="474" fill="#8b9ab0" font-size="9" text-anchor="end">d</text>
<line x1="780" y1="540" x2="780" y2="424" stroke="#8b9ab0" stroke-width="1.2" stroke-dasharray="4 3" marker-end="url(#arr)"/>
<text x="790" y="490" fill="#8b9ab0" font-size="9" text-anchor="start">m</text>

<!-- ══════════════════════════════════════════════════════════════════
     CANVAS REFRESH  (y ~ 752 lane)
════════════════════════════════════════════════════════════════════ -->

<!-- STATE: REFRESHING  x=740 -->
<ellipse cx="740" cy="752" rx="96" ry="36" fill="#0f1e30" stroke="#60a5fa" stroke-width="2"/>
<text x="740" y="747" fill="#93c5fd" font-size="14" font-weight="700" text-anchor="middle">REFRESHING</text>
<text x="740" y="764" fill="#93c5fd" font-size="10" text-anchor="middle">Canvas clear + full redraw</text>

<!-- REFRESHING — step boxes -->
<rect x="870" y="728" width="180" height="30" rx="6" fill="#0c1624" stroke="#1e3a5f" stroke-width="1"/>
<text x="960" y="743" fill="#7dd3fc" font-size="11" font-weight="600" text-anchor="middle">1. Clear canvas context</text>
<line x1="836" y1="752" x2="870" y2="743" stroke="#60a5fa" stroke-width="1.2" marker-end="url(#arr-blue)"/>

<rect x="870" y="764" width="180" height="30" rx="6" fill="#0c1624" stroke="#1e3a5f" stroke-width="1"/>
<text x="960" y="779" fill="#7dd3fc" font-size="11" font-weight="600" text-anchor="middle">2. Iterate all polylines</text>
<line x1="836" y1="752" x2="870" y2="779" stroke="#60a5fa" stroke-width="1.2" marker-end="url(#arr-blue)"/>

<rect x="870" y="800" width="180" height="30" rx="6" fill="#0c1624" stroke="#1e3a5f" stroke-width="1"/>
<text x="960" y="815" fill="#7dd3fc" font-size="11" font-weight="600" text-anchor="middle">3. Redraw segs + handles</text>
<line x1="870" y1="794" x2="870" y2="800" stroke="#60a5fa" stroke-width="1.2" marker-end="url(#arr-blue)"/>

<!-- REFRESHING → RESUME PRIOR MODE -->
<path d="M1050 752 Q1090 752 1090 680 Q1090 250 420 226" fill="none" stroke="#60a5fa" stroke-width="1.5" stroke-dasharray="6 3" marker-end="url(#arr-blue)"/>
<text x="1095" y="500" fill="#60a5fa" font-size="9" text-anchor="start">/ resume prior mode</text>

<!-- ──────────────────────────────────────────
  COLOUR PALETTE OPEN  x=1300, y=752
────────────────────────────────────────── -->

<!-- trigger from toolbar -->
<line x1="1140" y1="752" x2="1196" y2="752" stroke="#f472b6" stroke-width="1.5" marker-end="url(#arr-pink)"/>
<text x="1168" y="745" fill="#f472b6" font-size="10" text-anchor="middle" font-weight="600">palette icon click</text>
<text x="1168" y="757" fill="#64748b" font-size="9" text-anchor="middle">(any active mode)</text>

<!-- STATE: COLOUR PICKER OPEN  x=1300 -->
<ellipse cx="1300" cy="752" rx="104" ry="36" fill="#2a1022" stroke="#f472b6" stroke-width="2"/>
<text x="1300" y="747" fill="#f9a8d4" font-size="14" font-weight="700" text-anchor="middle">COLOUR PICKER</text>
<text x="1300" y="764" fill="#f9a8d4" font-size="10" text-anchor="middle">OPEN — palette UI visible</text>

<!-- COLOUR PICKER → COLOUR SELECTED -->
<line x1="1404" y1="752" x2="1536" y2="752" stroke="#f472b6" stroke-width="2" marker-end="url(#arr-pink)"/>
<rect x="1408" y="736" width="124" height="28" rx="4" fill="#2a1022"/>
<text x="1470" y="747" fill="#f472b6" font-size="11" font-weight="600" text-anchor="middle">colour chosen</text>
<text x="1470" y="759" fill="#f472b6" font-size="9" text-anchor="middle">/ set active stroke colour</text>

<!-- STATE: COLOUR SELECTED  x=1645 -->
<ellipse cx="1645" cy="752" rx="104" ry="36" fill="#2a1022" stroke="#f472b6" stroke-width="2"/>
<text x="1645" y="747" fill="#f9a8d4" font-size="14" font-weight="700" text-anchor="middle">COLOUR SELECTED</text>
<text x="1645" y="764" fill="#f9a8d4" font-size="10" text-anchor="middle">Stroke colour updated</text>

<!-- dismiss without choosing -->
<path d="M1300 716 Q1300 690 1200 690 Q1090 690 1090 690" fill="none" stroke="#f472b6" stroke-width="1" stroke-dasharray="4 3" marker-end="url(#arr-pink)"/>
<text x="1200" y="684" fill="#64748b" font-size="9" text-anchor="middle">dismiss / colour unchanged</text>

<!-- COLOUR SELECTED → resume prior mode -->
<path d="M1749 752 Q1820 752 1820 690 Q1820 230 420 200" fill="none" stroke="#f472b6" stroke-width="1.2" stroke-dasharray="5 3" marker-end="url(#arr-pink)"/>
<text x="1825" y="500" fill="#f472b6" font-size="9" text-anchor="start">/ resume prior mode</text>

<!-- ──────────────────────────────────────────
  DARK MODE TOGGLE  x=2100, y=752
────────────────────────────────────────── -->

<!-- trigger -->
<line x1="1960" y1="752" x2="2000" y2="752" stroke="#60a5fa" stroke-width="1.5" marker-end="url(#arr-blue)"/>
<text x="1980" y="745" fill="#60a5fa" font-size="10" text-anchor="middle" font-weight="600">toggle click</text>
<text x="1980" y="757" fill="#64748b" font-size="9" text-anchor="middle">(any mode)</text>

<!-- STATE: THEME SWITCHING  x=2110 -->
<ellipse cx="2110" cy="752" rx="104" ry="36" fill="#0e1e30" stroke="#60a5fa" stroke-width="2"/>
<text x="2110" y="747" fill="#93c5fd" font-size="14" font-weight="700" text-anchor="middle">THEME SWITCHING</text>
<text x="2110" y="764" fill="#93c5fd" font-size="10" text-anchor="middle">UI + canvas repainting</text>

<!-- THEME SWITCHING → THEME APPLIED -->
<line x1="2214" y1="752" x2="2350" y2="752" stroke="#60a5fa" stroke-width="2" marker-end="url(#arr-blue)"/>
<rect x="2218" y="736" width="128" height="28" rx="4" fill="#0e1e30"/>
<text x="2282" y="747" fill="#60a5fa" font-size="11" font-weight="600" text-anchor="middle">/ toggle dark ↔ light</text>
<text x="2282" y="759" fill="#60a5fa" font-size="9" text-anchor="middle">redraw all with new theme</text>

<!-- STATE: THEME APPLIED  x=2460 -->
<ellipse cx="2460" cy="752" rx="104" ry="36" fill="#0e1e30" stroke="#60a5fa" stroke-width="2"/>
<text x="2460" y="747" fill="#93c5fd" font-size="14" font-weight="700" text-anchor="middle">THEME APPLIED</text>
<text x="2460" y="764" fill="#93c5fd" font-size="10" text-anchor="middle">Dark / light mode active</text>

<!-- THEME APPLIED → resume prior mode -->
<path d="M2460 716 Q2460 680 2560 680 Q2660 680 2660 250 Q2660 200 420 200" fill="none" stroke="#60a5fa" stroke-width="1.2" stroke-dasharray="5 3" marker-end="url(#arr-blue)"/>
<text x="2665" y="400" fill="#60a5fa" font-size="9" text-anchor="start">/ resume prior mode</text>

<!-- ══════════════════════════════════════════════════════════════════
     UNDO / REDO SUB-FLOW  (y ~ 942 lane)
════════════════════════════════════════════════════════════════════ -->

<!-- STATE: UNDO/REDO CHECK  x=740 -->
<ellipse cx="740" cy="942" rx="110" ry="36" fill="#1e102e" stroke="#a78bfa" stroke-width="2"/>
<text x="740" y="937" fill="#c4b5fd" font-size="14" font-weight="700" text-anchor="middle">UNDO/REDO CHECK</text>
<text x="740" y="954" fill="#c4b5fd" font-size="10" text-anchor="middle">History stack consulted</text>

<!-- Branch: stack not empty → ACTION REVERSED -->
<line x1="850" y1="930" x2="986" y2="910" stroke="#a78bfa" stroke-width="2" marker-end="url(#arr-purple)"/>
<text x="915" y="912" fill="#a78bfa" font-size="10" text-anchor="middle" font-weight="600">[stack not empty]</text>
<text x="915" y="923" fill="#64748b" font-size="9" text-anchor="middle">/ pop action, revert state</text>

<!-- Branch: stack empty → NOTHING TO UNDO -->
<line x1="850" y1="954" x2="986" y2="974" stroke="#64748b" stroke-width="1.5" stroke-dasharray="5 3" marker-end="url(#arr)"/>
<text x="915" y="968" fill="#64748b" font-size="10" text-anchor="middle" font-weight="600">[stack empty]</text>
<text x="915" y="979" fill="#64748b" font-size="9" text-anchor="middle">/ show status msg</text>

<!-- STATE: ACTION REVERSED  x=1100 -->
<ellipse cx="1100" cy="900" rx="106" ry="34" fill="#1e102e" stroke="#a78bfa" stroke-width="2"/>
<text x="1100" y="895" fill="#c4b5fd" font-size="13" font-weight="700" text-anchor="middle">ACTION REVERSED</text>
<text x="1100" y="910" fill="#c4b5fd" font-size="10" text-anchor="middle">Canvas reflects prev. state</text>

<!-- STATE: NOTHING TO UNDO  x=1100 -->
<ellipse cx="1100" cy="984" rx="106" ry="30" fill="#1a1a1a" stroke="#475569" stroke-width="1.5" stroke-dasharray="5 3"/>
<text x="1100" y="979" fill="#94a3b8" font-size="13" font-weight="700" text-anchor="middle">NOTHING TO UNDO</text>
<text x="1100" y="994" fill="#94a3b8" font-size="10" text-anchor="middle">Status message displayed</text>

<!-- ACTION REVERSED → resume prior mode -->
<path d="M1206 900 Q1280 900 1280 840 Q1280 250 420 200" fill="none" stroke="#a78bfa" stroke-width="1.5" stroke-dasharray="5 3" marker-end="url(#arr-purple)"/>
<text x="1285" y="550" fill="#a78bfa" font-size="9" text-anchor="start">/ resume prior mode</text>

<!-- NOTHING TO UNDO → resume prior mode -->
<path d="M1206 984 Q1290 984 1290 880 Q1290 230 420 210" fill="none" stroke="#64748b" stroke-width="1.2" stroke-dasharray="5 3" marker-end="url(#arr)"/>

<!-- Ctrl+Y (Redo) label -->
<text x="740" y="1010" fill="#a78bfa" font-size="10" text-anchor="middle" font-weight="600">Ctrl+Z = Undo  |  Ctrl+Y = Redo</text>
<text x="740" y="1024" fill="#64748b" font-size="9" text-anchor="middle">(Redo pops from redo stack instead)</text>

<!-- ══════════════════════════════════════════════════════════════════
     QUIT CONFIRM + TERMINATED  (far right, x=3060)
════════════════════════════════════════════════════════════════════ -->

<!-- STATE: QUIT CONFIRM  x=3060, y=190 -->
<ellipse cx="3060" cy="190" rx="96" ry="36" fill="#1e1010" stroke="#f87171" stroke-width="2"/>
<text x="3060" y="185" fill="#fca5a5" font-size="14" font-weight="700" text-anchor="middle">QUIT CONFIRM</text>
<text x="3060" y="202" fill="#fca5a5" font-size="10" text-anchor="middle">Modal dialog shown</text>

<!-- QUIT CONFIRM → TERMINATED (confirm) -->
<line x1="3060" y1="226" x2="3060" y2="296" stroke="#f87171" stroke-width="2" marker-end="url(#arr-coral)"/>
<text x="3066" y="262" fill="#fb7185" font-size="11" font-weight="600" text-anchor="start">confirm</text>
<text x="3066" y="274" fill="#64748b" font-size="9" text-anchor="start">/ end session</text>

<!-- QUIT CONFIRM → DRAWING (cancel) -->
<path d="M2980 178 Q2900 150 2900 190 Q2900 200 2400 200 Q2000 200 512 190" fill="none" stroke="#f87171" stroke-width="1.2" stroke-dasharray="5 3" marker-end="url(#arr-coral)"/>
<text x="2700" y="168" fill="#64748b" font-size="9" text-anchor="middle">cancel / resume prior state</text>

<!-- STATE: TERMINATED  x=3060, y=360 (double-ring final state) -->
<ellipse cx="3060" cy="360" rx="80" ry="38" fill="#1a0e0e" stroke="#f87171" stroke-width="2.5"/>
<ellipse cx="3060" cy="360" rx="68" ry="28" fill="none" stroke="#f87171" stroke-width="1"/>
<text x="3060" y="355" fill="#fca5a5" font-size="14" font-weight="700" text-anchor="middle">TERMINATED</text>
<text x="3060" y="370" fill="#fca5a5" font-size="10" text-anchor="middle">Application session ended</text>

<!-- ══════════════════════════════════════════════════════════════════
     LEGEND PANEL (bottom right)
════════════════════════════════════════════════════════════════════ -->

<rect x="2560" y="840" width="600" height="264" rx="12" fill="#141820" stroke="#2a3040" stroke-width="1"/>
<text x="2860" y="866" fill="#e2e8f0" font-size="13" font-weight="700" text-anchor="middle">LEGEND</text>

<!-- state colours -->
<ellipse cx="2590" cy="892" rx="28" ry="14" fill="#1a2e1a" stroke="#2dd4a0" stroke-width="1.5"/>
<text x="2590" y="892" fill="#6ee7b7" font-size="10" font-weight="700" text-anchor="middle">Green</text>
<text x="2624" y="892" fill="#94a3b8" font-size="11" dominant-baseline="central">Drawing active</text>

<ellipse cx="2590" cy="920" rx="28" ry="14" fill="#1e1a30" stroke="#a78bfa" stroke-width="1.5"/>
<text x="2590" y="920" fill="#c4b5fd" font-size="10" font-weight="700" text-anchor="middle">Purple</text>
<text x="2624" y="920" fill="#94a3b8" font-size="11" dominant-baseline="central">Move / Undo operations</text>

<ellipse cx="2590" cy="948" rx="28" ry="14" fill="#2a1018" stroke="#fb7185" stroke-width="1.5"/>
<text x="2590" y="948" fill="#fca5a5" font-size="10" font-weight="700" text-anchor="middle">Coral</text>
<text x="2624" y="948" fill="#94a3b8" font-size="11" dominant-baseline="central">Delete / vertex removal</text>

<ellipse cx="2590" cy="976" rx="28" ry="14" fill="#2a1e0a" stroke="#fbbf24" stroke-width="1.5"/>
<text x="2590" y="976" fill="#fde68a" font-size="10" font-weight="700" text-anchor="middle">Amber</text>
<text x="2624" y="976" fill="#94a3b8" font-size="11" dominant-baseline="central">Vertex drag in progress</text>

<ellipse cx="2760" cy="892" rx="28" ry="14" fill="#0f1e30" stroke="#60a5fa" stroke-width="1.5"/>
<text x="2760" y="892" fill="#93c5fd" font-size="10" font-weight="700" text-anchor="middle">Blue</text>
<text x="2794" y="892" fill="#94a3b8" font-size="11" dominant-baseline="central">Refresh / Theme</text>

<ellipse cx="2760" cy="920" rx="28" ry="14" fill="#2a1022" stroke="#f472b6" stroke-width="1.5"/>
<text x="2760" y="920" fill="#f9a8d4" font-size="10" font-weight="700" text-anchor="middle">Pink</text>
<text x="2794" y="920" fill="#94a3b8" font-size="11" dominant-baseline="central">Colour palette</text>

<ellipse cx="2760" cy="948" rx="28" ry="14" fill="#1e2a3a" stroke="#38bdf8" stroke-width="1.5"/>
<text x="2760" y="948" fill="#7dd3fc" font-size="10" font-weight="700" text-anchor="middle">Teal</text>
<text x="2794" y="948" fill="#94a3b8" font-size="11" dominant-baseline="central">Idle / initial state</text>

<ellipse cx="2760" cy="976" rx="28" ry="14" fill="#1a1010" stroke="#64748b" stroke-width="1.5"/>
<text x="2760" y="976" fill="#94a3b8" font-size="10" font-weight="700" text-anchor="middle">Gray</text>
<text x="2794" y="976" fill="#94a3b8" font-size="11" dominant-baseline="central">Terminal / aux state</text>

<!-- Arrow type legend -->
<line x1="2580" y1="1012" x2="2650" y2="1012" stroke="#8b9ab0" stroke-width="2" marker-end="url(#arr)"/>
<text x="2660" y="1012" fill="#94a3b8" font-size="11" dominant-baseline="central">Normal transition</text>

<line x1="2580" y1="1034" x2="2650" y2="1034" stroke="#8b9ab0" stroke-width="1.5" stroke-dasharray="5 3" marker-end="url(#arr)"/>
<text x="2660" y="1034" fill="#94a3b8" font-size="11" dominant-baseline="central">Return / implicit transition</text>

<line x1="2580" y1="1056" x2="2650" y2="1056" stroke="#8b9ab0" stroke-width="1.5" stroke-dasharray="5 3"/>
<ellipse cx="2656" cy="1056" rx="24" ry="10" fill="#1a1a1a" stroke="#475569" stroke-width="1.5" stroke-dasharray="5 3"/>
<text x="2656" y="1056" fill="#94a3b8" font-size="9" font-weight="700" text-anchor="middle">...</text>
<text x="2686" y="1056" fill="#94a3b8" font-size="11" dominant-baseline="central">Partial / stub state</text>

<rect x="2760" y="1005" width="52" height="24" rx="4" fill="#0c1624" stroke="#1e3a5f" stroke-width="1"/>
<text x="2786" y="1017" fill="#7dd3fc" font-size="10" font-weight="600" text-anchor="middle">action</text>
<text x="2818" y="1017" fill="#94a3b8" font-size="11" dominant-baseline="central">Side-effect / system action</text>

<text x="2786" y="1040" fill="#a78bfa" font-size="11" font-weight="600" text-anchor="middle">[guard]</text>
<text x="2818" y="1040" fill="#94a3b8" font-size="11" dominant-baseline="central">Conditional guard on arrow</text>

<circle cx="2590" cy="1080" r="8" fill="#e2e8f0"/>
<text x="2604" y="1080" fill="#94a3b8" font-size="11" dominant-baseline="central">Start state (initial)</text>

<ellipse cx="2762" cy="1080" rx="22" ry="12" fill="#1a0e0e" stroke="#f87171" stroke-width="2"/>
<ellipse cx="2762" cy="1080" rx="16" ry="8" fill="none" stroke="#f87171" stroke-width="1"/>
<text x="2786" y="1080" fill="#94a3b8" font-size="11" dominant-baseline="central">Final / terminated state</text>

</svg>
